<svg xmlns="http://www.w3.org/2000/svg" viewBox="0 0 24 24" width="24" height="24" fill="none">
<path d="M8.5 18.5h7v-1.5H8.5v1.5Zm3.5 -3q2.075 0 3.5375 -1.4625T17 10.5q0 -2.075 -1.4625 -3.5375T12 5.5q-2.075 0 -3.5375 1.4625T7 10.5q0 2.075 1.4625 3.5375T12 15.5Zm0 -1.675q-0.2 -0.275 -0.425 -0.9125T11.275 11.25h1.45q-0.075 1.025 -0.3 1.6625T12 13.825Zm-1.8 -0.325q-0.6 -0.375 -1.025 -0.95t-0.575 -1.3h1.175q0.05 0.625 0.15 1.1875t0.275 1.0625Zm3.6 0q0.175 -0.5 0.275 -1.0625t0.15 -1.1875h1.175q-0.15 0.725 -0.575 1.3t-1.025 0.95ZM8.6 9.75q0.15 -0.725 0.575 -1.3t1.025 -0.95q-0.175 0.5 -0.275 1.0625t-0.15 1.1875h-1.175Zm2.675 0q0.075 -1.025 0.3 -1.6625t0.425 -0.9125q0.2 0.275 0.425 0.9125t0.3 1.6625h-1.45Zm2.95 0q-0.05 -0.625 -0.15 -1.1875T13.8 7.5q0.6 0.375 1.025 0.95t0.575 1.3h-1.175ZM4 22v-20h14q0.825 0 1.4125 0.5875T20 4v16q0 0.825 -0.5875 1.4125T18 22H4Zm2 -2h12v-16H6v16Zm0 0v-16 16Z" fill="#101828"/>
</svg>